Coordinates
version=1
nRows=43
nColumns=12
inDegrees=yes

Units are S.I. units (second, meters, Newtons, ...)
Angles are in degrees

endheader
time	SC_y	SC_z	SC_x	AC_y	AC_z	AC_x	GH_y	GH_z	GH_yy	EL_x	PS_y
       0.0              -37.82          30.92          40.18          65.79           1.91         -7.322          67.58          32.43         -134.3          16.43          131.6
   0.04413              -37.82          30.92          40.18          65.79          1.911         -7.323          67.55          32.44         -134.3          16.43          131.6
   0.08827              -37.82          30.92          40.19          65.79          1.912         -7.324          67.53          32.44         -134.3          16.43          131.6
    0.1324              -37.82          30.91          40.19          65.79          1.913         -7.325           67.5          32.45         -134.3          16.43          131.6
    0.1765              -37.82          30.91           40.2          65.79          1.913         -7.326          67.47          32.45         -134.3          16.43          131.5
    0.2207              -37.81          30.91           40.2          65.79          1.914         -7.327          67.44          32.45         -134.2          16.43          131.5
    0.2648              -37.81          30.91          40.21          65.79          1.915         -7.328          67.41          32.46         -134.2          16.43          131.5
    0.3089              -37.81           30.9          40.21          65.79          1.916         -7.329          67.37          32.46         -134.2          16.43          131.5
    0.3531              -37.81           30.9          40.22          65.79          1.917          -7.33          67.33          32.47         -134.2          16.43          131.5
    0.3972              -37.81           30.9          40.23          65.79          1.918         -7.331          67.29          32.48         -134.1          16.43          131.5
    0.4413              -37.81          30.89          40.23          65.79          1.919         -7.333          67.25          32.48         -134.1          16.43          131.5
    0.4855              -37.81          30.89          40.24          65.79          1.921         -7.334           67.2          32.49         -134.1          16.44          131.4
    0.5296               -37.8          30.88          40.25          65.78          1.922         -7.336          67.15           32.5         -134.0          16.44          131.4
    0.5737               -37.8          30.88          40.26          65.78          1.923         -7.338           67.1           32.5         -134.0          16.44          131.4
    0.6179               -37.8          30.87          40.27          65.78          1.925          -7.34          67.04          32.51         -133.9          16.44          131.4
     0.662               -37.8          30.87          40.28          65.78          1.927         -7.342          66.97          32.52         -133.9          16.44          131.3
    0.7061               -37.8          30.86          40.29          65.78          1.929         -7.344           66.9          32.53         -133.8          16.44          131.3
    0.7503              -37.79          30.85          40.31          65.78          1.931         -7.347          66.83          32.54         -133.8          16.44          131.3
    0.7944              -37.79          30.85          40.32          65.78          1.933         -7.349          66.75          32.55         -133.7          16.44          131.2
    0.8385              -37.79          30.84          40.34          65.78          1.935         -7.352          66.65          32.57         -133.7          16.44          131.2
    0.8827              -37.78          30.83          40.35          65.78          1.938         -7.356          66.55          32.58         -133.6          16.45          131.2
    0.9268              -37.78          30.82          40.37          65.78          1.941         -7.359          66.44           32.6         -133.5          16.45          131.1
    0.9709              -37.78          30.81          40.39          65.78          1.944         -7.363          66.32          32.62         -133.4          16.45          131.1
     1.015              -37.77           30.8          40.41          65.77          1.948         -7.368          66.19          32.64         -133.3          16.45          131.0
     1.059              -37.77          30.78          40.44          65.77          1.952         -7.373          66.04          32.66         -133.2          16.45          130.9
     1.103              -37.76          30.77          40.47          65.77          1.956         -7.378          65.87          32.68         -133.1          16.46          130.9
     1.147              -37.75          30.75           40.5          65.77          1.961         -7.384          65.69          32.71         -133.0          16.46          130.8
     1.192              -37.75          30.73          40.53          65.77          1.967         -7.391          65.48          32.74         -132.8          16.46          130.7
     1.236              -37.74          30.71          40.57          65.76          1.974         -7.399          65.24          32.77         -132.6          16.47          130.6
      1.28              -37.73          30.69          40.62          65.76          1.981         -7.408          64.97          32.81         -132.4          16.47          130.5
     1.324              -37.72          30.66          40.67          65.76          1.989         -7.418          64.66          32.86         -132.2          16.48          130.4
     1.368              -37.71          30.63          40.73          65.75          1.999         -7.429          64.31          32.91         -132.0          16.48          130.2
     1.412              -37.69          30.59           40.8          65.75           2.01         -7.443           63.9          32.97         -131.7          16.49          130.0
     1.456              -37.68          30.55          40.88          65.74          2.022         -7.458          63.43          33.04         -131.3          16.49          129.8
     1.501              -37.66           30.5          40.98          65.74          2.037         -7.476          62.87          33.12         -130.9           16.5          129.6
     1.545              -37.64          30.44          41.09          65.73          2.055         -7.498          62.22          33.21         -130.5          16.51          129.3
     1.589              -37.61          30.37          41.22          65.72          2.076         -7.523          61.44          33.32         -129.9          16.53          129.0
     1.633              -37.58          30.29          41.38          65.71          2.101         -7.554          60.51          33.46         -129.2          16.54          128.6
     1.677              -37.54          30.19          41.57           65.7          2.131          -7.59          59.38          33.62         -128.4          16.56          128.1
     1.721              -37.49          30.06           41.8          65.69          2.168         -7.635          58.01          33.82         -127.4          16.58          127.5
     1.765              -37.43          29.91          42.09          65.67          2.214         -7.691          56.31          34.07         -126.2          16.61          126.8
     1.809              -37.36          29.72          42.45          65.64          2.271          -7.76          54.19          34.37         -124.7          16.64          125.9
     1.854              -37.27          29.48           42.9          65.61          2.343         -7.848          51.52          34.76         -122.8          16.68          124.8
